<svg xmlns="http://www.w3.org/2000/svg" width="14" height="11" viewBox="0 0 14 11">
  <path fill="#A3A2A2" d="M12.838272,9.738184 L2.601104,9.738184 L5.9983,6.340768 C6.295916,6.043328 6.295916,5.560824 5.9983,5.263428 C5.700684,4.965812 5.21818,4.965812 4.921004,5.263428 L0.223212,9.961308 C-0.074404,10.258748 -0.074404,10.741296 0.223212,11.038648 L4.921004,15.736748 C5.069768,15.8856 5.264732,15.959916 5.459652,15.959916 C5.654572,15.959916 5.849536,15.8856 5.9983,15.736748 C6.295916,15.439308 6.295916,14.956804 5.9983,14.659452 L2.601104,11.26186 L12.838272,11.26186 C13.259,11.26186 13.600176,10.920728 13.600176,10.5 C13.600176,10.079272 13.259044,9.738184 12.838272,9.738184 Z" transform="translate(0 -5)"/>
</svg>
