<svg xmlns="http://www.w3.org/2000/svg" width="11" height="11" viewBox="0 0 11 11">
  <path fill="#0D8660" stroke="#FFF" d="M9.42857143,8.42857143 L6.57142857,8.42857143 L6.57142857,5.57142857 C6.57142857,4.98014237 6.0912862,4.5 5.5,4.5 C4.90840578,4.5 4.42857143,4.97966974 4.42857143,5.57142857 L4.42857143,8.42857143 L1.57142857,8.42857143 C0.979834349,8.42857143 0.5,8.90824117 0.5,9.5 C0.5,10.0912862 0.980142375,10.5714286 1.57142857,10.5714286 L4.42857143,10.5714286 L4.42857143,13.4285714 C4.42857143,14.0198576 4.9087138,14.5 5.5,14.5 C6.09159422,14.5 6.57142857,14.0203303 6.57142857,13.4285714 L6.57142857,10.5714286 L9.42857143,10.5714286 C10.0198576,10.5714286 10.5,10.0912862 10.5,9.5 C10.5,8.9087138 10.0198576,8.42857143 9.42857143,8.42857143 Z" transform="translate(0 -4)"/>
</svg>
