<svg xmlns="http://www.w3.org/2000/svg" width="130" height="34" viewBox="0 0 115 34">
  <g fill="none" fill-rule="evenodd">
    <g fill-rule="nonzero" transform="rotate(90 16.071 16.5)">
      <path fill="#00AEEE" d="M19.8987437,0.517954867 L29.159286,5.55755709 C31.2202554,6.67914 32.4898649,8.75191072 32.4898649,10.9950766 L32.4898649,21.0742811 C32.4898649,23.3174468 31.2202554,25.3902176 29.159286,26.5118005 L19.8987437,31.5514027 C17.8377743,32.6729856 15.2985553,32.6729856 13.2375858,31.5514027 L3.97704358,26.5118005 C1.91607416,25.3902176 0.646464646,23.3174468 0.646464646,21.0742811 L0.646464646,10.9950766 C0.646464646,8.75191072 1.91607416,6.67914 3.97704358,5.55755709 L13.2375858,0.517954867 C15.2985553,-0.603628053 17.8377743,-0.603628053 19.8987437,0.517954867 Z" transform="rotate(90 16.568 16.035)"/>
      <g fill="#FFF" transform="translate(5.818 2.91)">
        <path d="M12.6761276,0.232789888 C12.5219288,0.0785911471 12.2992175,0.000400232693 12.0141427,0.000400232693 C11.0130879,0.000400232693 9.39028991,0.9743483 8.51207023,1.55490401 L8.44239336,1.60096716 L8.24275001,3.17639219 L7.71451563,2.10522397 L7.53968671,2.23333481 C6.41081221,3.06079772 5.27102226,4.03460024 4.3303299,4.97529261 C4.15768407,5.14790206 3.9877671,5.32345867 3.82523624,5.49705051 L3.79154392,5.53299868 L3.08615199,8.63774922 L2.71473605,6.7850357 L2.47073965,7.11933915 C2.32687419,7.31647194 2.19112253,7.51353197 2.06723232,7.70509789 L2.04471014,7.73991813 L1.74417177,10.1111877 L1.2749899,9.15976181 L1.14636967,9.61599069 C0.976198001,10.2196507 0.978599397,10.7288195 1.14811614,11.1175546 L0.175528109,12.0700184 C-0.00206605235,12.247649 -0.00206605235,12.5355982 0.175528109,12.7132288 C0.264343382,12.8020077 0.380738327,12.8464335 0.497133271,12.8464335 C0.613528215,12.8464335 0.729923159,12.8020077 0.818738432,12.7132288 L1.79048961,11.7616382 C1.98492993,11.8465966 2.21004263,11.8896399 2.46426316,11.8896399 C2.71495436,11.8896399 2.99373462,11.8468513 3.29289037,11.7625478 L3.74915564,11.6339639 L2.79765699,11.1647457 L5.16892654,10.8642073 L5.2037104,10.8416851 C5.39487609,10.7181224 5.59193612,10.5823343 5.78950553,10.4381778 L6.12384536,10.1942178 L4.27113184,9.82276546 L7.37591877,9.11733714 L7.41190333,9.08364483 C7.58589539,8.92067735 7.76145201,8.75076038 7.93366122,8.57855117 C9.24995378,7.26225861 10.5574048,5.64462721 11.5207649,4.14040721 L12.0480169,3.26418869 C12.9201967,1.70546428 13.1305736,0.687199535 12.6761276,0.232789888 Z" transform="scale(-1 1) rotate(19 -6.847 -37.07)"/>
        <g transform="matrix(0 -1 -1 0 20.415 20.415)">
          <path d="M11.4876768.168080808L.898585859.168080808C.448956768.168080808.084040404.532997172.084040404.982626263.084040404 1.43225535.448956768 1.79717172.898585859 1.79717172L11.4876768 1.79717172C11.9373059 1.79717172 12.3022222 1.43225535 12.3022222.982626263 12.3022222.532997172 11.9373059.168080808 11.4876768.168080808zM6.19313131 3.42626263L.898585859 3.42626263C.448956768 3.42626263.084040404 3.79117899.084040404 4.24080808.084040404 4.69043717.448956768 5.05535354.898585859 5.05535354L6.19313131 5.05535354C6.6427604 5.05535354 7.00767677 4.69043717 7.00767677 4.24080808 7.00767677 3.79117899 6.6427604 3.42626263 6.19313131 3.42626263z"/>
        </g>
      </g>
    </g>
    <text fill="#474545" font-family="'Hind', sans-serif" font-size="20" font-weight="400" letter-spacing=".8">
      <tspan x="39.7" y="23">Scribble</tspan>
    </text>
  </g>
</svg>
