<svg xmlns="http://www.w3.org/2000/svg" width="37" height="40" viewBox="0 0 37 40">
  <g fill="none">
    <path fill="#bbe7d9" d="M29.0113422,10.0160681 C32.2665406,12.9139887 34.3308129,17.1417769 34.3308129,21.8657845 C34.3308129,30.6389414 27.2249527,37.7448015 18.4517958,37.7448015 C9.67863894,37.7448015 2.57277883,30.6389414 2.57277883,21.8657845 C2.57277883,13.0926276 9.67863894,5.98676749 18.4517958,5.98676749 C22.5009452,5.98676749 26.2126654,7.51512287 29.0113422,10.0160681 Z"/>
    <path fill="#0AAF7B" d="M18.4517958,39.7296786 C28.3007561,39.7296786 36.31569,31.7147448 36.31569,21.8657845 C36.31569,17.3581285 34.5948015,13.0330813 31.5599244,9.75009452 L35.9822306,3.11465028 C36.589603,2.20160681 36.3414934,0.96899811 35.4284499,0.363610586 C34.5173913,-0.243761815 33.2827977,0.00434782609 32.6774102,0.917391304 L28.529017,7.14196597 C25.5755198,5.11342155 22.0761815,4.00189036 18.4517958,4.00189036 C8.60283554,4.00189036 0.587901701,12.0168242 0.587901701,21.8657845 C0.587901701,31.7147448 8.60283554,39.7296786 18.4517958,39.7296786 Z M18.4517958,7.97164461 C21.2862004,7.97164461 24.0233459,8.84499055 26.3297732,10.4428166 L18.4517958,22.2587902 L16.1334594,18.7812854 C15.5241021,17.8702268 14.2934783,17.6201323 13.3804348,18.2314745 C12.4693762,18.8388469 12.2232514,20.0714556 12.8306238,20.9844991 L16.8003781,26.9391304 C17.1695652,27.4889414 17.7888469,27.8204159 18.4517958,27.8204159 C19.1147448,27.8204159 19.7340265,27.4889414 20.1032136,26.9371456 L29.2713611,13.1859168 C31.2344045,15.6352552 32.3459357,18.6879962 32.3459357,21.8657845 C32.3459357,29.5274102 26.1134216,35.7599244 18.4517958,35.7599244 C10.7901701,35.7599244 4.55765595,29.5274102 4.55765595,21.8657845 C4.55765595,14.2041588 10.7901701,7.97164461 18.4517958,7.97164461 Z"/>
  </g>
</svg>
